{
.appVersion = "74";
DisplayStrings = (
0
);
copyright = "Copyright © 2017 by .";
customParameters = (
{
name = license;
value = CC0;
}
);
date = "2017-12-06 12:02:08 +0000";
designer = "Esa Juhana Lahikainen";
designerURL = "http://esajuhana.com/";
familyName = Tie;
featurePrefixes = (
{
automatic = 1;
code = "languagesystem DFLT dflt;\012";
name = Languagesystems;
}
);
fontMaster = (
{
ascender = 834;
capHeight = 834;
descender = -166;
id = "AD39E6C8-8F9C-453F-B2FE-0131B3A51D2D";
userData = {
GSCornerRadius = 15;
GSOffsetAutoStroke = 1;
GSOffsetHorizontal = 2;
GSOffsetMakeStroke = 1;
GSOffsetVertical = 2;
};
xHeight = 625;
}
);
glyphs = (
{
glyphname = A;
lastChange = "2017-12-13 16:57:54 +0000";
layers = (
{
layerId = "AD39E6C8-8F9C-453F-B2FE-0131B3A51D2D";
paths = (
{
closed = 1;
nodes = (
"425 267 LINE",
"243 267 LINE",
"334 586 LINE"
);
},
{
closed = 1;
nodes = (
"265 834 LINE",
"42 0 LINE",
"167 0 LINE",
"209 142 LINE",
"462 142 LINE",
"501 0 LINE",
"626 0 LINE",
"405 834 LINE"
);
}
);
width = 668;
}
);
unicode = 0041;
},
{
glyphname = Adieresis;
lastChange = "2017-12-13 16:58:33 +0000";
layers = (
{
layerId = "AD39E6C8-8F9C-453F-B2FE-0131B3A51D2D";
paths = (
{
closed = 1;
nodes = (
"277 972 OFFCURVE",
"245 1002 OFFCURVE",
"209 1002 CURVE",
"172 1002 OFFCURVE",
"142 972 OFFCURVE",
"142 936 CURVE",
"142 898 OFFCURVE",
"172 869 OFFCURVE",
"209 869 CURVE",
"245 869 OFFCURVE",
"277 898 OFFCURVE",
"277 936 CURVE"
);
},
{
closed = 1;
nodes = (
"528 972 OFFCURVE",
"497 1002 OFFCURVE",
"460 1002 CURVE",
"422 1002 OFFCURVE",
"393 972 OFFCURVE",
"393 936 CURVE",
"393 898 OFFCURVE",
"422 869 OFFCURVE",
"460 869 CURVE",
"497 869 OFFCURVE",
"528 898 OFFCURVE",
"528 936 CURVE"
);
},
{
closed = 1;
nodes = (
"425 268 LINE",
"244 268 LINE",
"333 587 LINE"
);
},
{
closed = 1;
nodes = (
"262 834 LINE",
"42 0 LINE",
"168 0 LINE",
"209 143 LINE",
"461 143 LINE",
"501 0 LINE",
"627 0 LINE",
"405 834 LINE"
);
}
);
width = 669;
}
);
leftMetricsKey = A;
rightMetricsKey = A;
unicode = 00C4;
},
{
glyphname = Aring;
lastChange = "2017-12-13 16:59:15 +0000";
layers = (
{
layerId = "AD39E6C8-8F9C-453F-B2FE-0131B3A51D2D";
paths = (
{
closed = 1;
nodes = (
"243 267 LINE",
"334 586 LINE",
"424 267 LINE"
);
},
{
closed = 1;
nodes = (
"265 834 LINE",
"42 0 LINE",
"167 0 LINE",
"209 142 LINE",
"461 142 LINE",
"500 0 LINE",
"626 0 LINE",
"405 834 LINE"
);
},
{
closed = 1;
nodes = (
"302 986 OFFCURVE",
"317 1000 OFFCURVE",
"334 1000 CURVE",
"353 1000 OFFCURVE",
"368 986 OFFCURVE",
"368 969 CURVE",
"368 949 OFFCURVE",
"353 934 OFFCURVE",
"334 934 CURVE",
"317 934 OFFCURVE",
"302 949 OFFCURVE",
"302 969 CURVE"
);
},
{
closed = 1;
nodes = (
"432 1020 OFFCURVE",
"388 1064 OFFCURVE",
"334 1064 CURVE",
"282 1064 OFFCURVE",
"238 1020 OFFCURVE",
"238 969 CURVE",
"238 915 OFFCURVE",
"282 873 OFFCURVE",
"334 873 CURVE",
"388 873 OFFCURVE",
"432 915 OFFCURVE",
"432 969 CURVE"
);
}
);
width = 668;
}
);
leftMetricsKey = A;
rightMetricsKey = A;
unicode = 00C5;
},
{
glyphname = B;
lastChange = "2017-12-13 17:36:42 +0000";
layers = (
{
layerId = "AD39E6C8-8F9C-453F-B2FE-0131B3A51D2D";
paths = (
{
closed = 1;
nodes = (
"266 709 LINE",
"428 709 LINE",
"477 709 OFFCURVE",
"516 670 OFFCURVE",
"516 621 CURVE",
"516 589 LINE",
"516 540 OFFCURVE",
"477 500 OFFCURVE",
"428 500 CURVE",
"266 500 LINE"
);
},
{
closed = 1;
nodes = (
"141 0 LINE",
"266 0 LINE",
"458 0 LINE",
"583 0 OFFCURVE",
"683 100 OFFCURVE",
"683 225 CURVE",
"683 275 LINE",
"683 346 OFFCURVE",
"652 412 OFFCURVE",
"595 454 CURVE",
"625 493 OFFCURVE",
"641 540 OFFCURVE",
"641 589 CURVE",
"641 621 LINE",
"641 739 OFFCURVE",
"546 834 OFFCURVE",
"428 834 CURVE",
"141 834 LINE"
);
},
{
closed = 1;
nodes = (
"458 375 LINE",
"514 375 OFFCURVE",
"558 331 OFFCURVE",
"558 275 CURVE",
"558 225 LINE",
"558 169 OFFCURVE",
"514 125 OFFCURVE",
"458 125 CURVE",
"266 125 LINE",
"266 375 LINE"
);
}
);
width = 766;
}
);
unicode = 0042;
},
{
glyphname = C;
lastChange = "2017-12-13 17:36:57 +0000";
layers = (
{
layerId = "AD39E6C8-8F9C-453F-B2FE-0131B3A51D2D";
paths = (
{
closed = 1;
nodes = (
"75 272 LINE",
"75 120 OFFCURVE",
"198 0 OFFCURVE",
"348 0 CURVE",
"497 0 OFFCURVE",
"618 120 OFFCURVE",
"618 272 CURVE",
"618 278 OFFCURVE",
"618 285 OFFCURVE",
"618 291 CURVE",
"492 291 LINE",
"492 285 OFFCURVE",
"492 278 OFFCURVE",
"492 272 CURVE",
"492 191 OFFCURVE",
"429 125 OFFCURVE",
"348 125 CURVE",
"267 125 OFFCURVE",
"200 191 OFFCURVE",
"200 272 CURVE",
"200 565 LINE",
"200 643 OFFCURVE",
"267 709 OFFCURVE",
"348 709 CURVE",
"429 709 OFFCURVE",
"492 643 OFFCURVE",
"492 565 CURVE",
"618 565 LINE",
"618 714 OFFCURVE",
"497 834 OFFCURVE",
"348 834 CURVE",
"198 834 OFFCURVE",
"75 714 OFFCURVE",
"75 565 CURVE"
);
}
);
width = 668;
}
);
unicode = 0043;
},
{
glyphname = D;
lastChange = "2017-12-13 17:37:05 +0000";
layers = (
{
layerId = "AD39E6C8-8F9C-453F-B2FE-0131B3A51D2D";
paths = (
{
closed = 1;
nodes = (
"184 709 LINE",
"350 709 LINE",
"419 709 OFFCURVE",
"475 653 OFFCURVE",
"475 584 CURVE",
"475 250 LINE",
"475 181 OFFCURVE",
"419 125 OFFCURVE",
"350 125 CURVE",
"184 125 LINE"
);
},
{
closed = 1;
nodes = (
"350 0 LINE",
"489 0 OFFCURVE",
"601 112 OFFCURVE",
"601 250 CURVE",
"601 584 LINE",
"601 722 OFFCURVE",
"489 834 OFFCURVE",
"350 834 CURVE",
"58 834 LINE",
"58 0 LINE"
);
}
);
width = 668;
}
);
unicode = 0044;
},
{
glyphname = E;
lastChange = "2017-12-13 17:37:18 +0000";
layers = (
{
layerId = "AD39E6C8-8F9C-453F-B2FE-0131B3A51D2D";
paths = (
{
closed = 1;
nodes = (
"600 0 LINE",
"600 125 LINE",
"267 125 LINE",
"267 376 LINE",
"492 376 LINE",
"492 501 LINE",
"267 501 LINE",
"267 709 LINE",
"600 709 LINE",
"600 834 LINE",
"142 834 LINE",
"142 0 LINE"
);
}
);
width = 683;
}
);
unicode = 0045;
},
{
glyphname = F;
lastChange = "2017-12-13 17:37:33 +0000";
layers = (
{
layerId = "AD39E6C8-8F9C-453F-B2FE-0131B3A51D2D";
paths = (
{
closed = 1;
nodes = (
"601 834 LINE",
"601 709 LINE",
"267 709 LINE",
"267 500 LINE",
"492 500 LINE",
"492 375 LINE",
"267 375 LINE",
"267 0 LINE",
"142 0 LINE",
"142 834 LINE"
);
}
);
width = 651;
}
);
unicode = 0046;
},
{
glyphname = G;
lastChange = "2017-12-13 17:37:42 +0000";
layers = (
{
layerId = "AD39E6C8-8F9C-453F-B2FE-0131B3A51D2D";
paths = (
{
closed = 1;
nodes = (
"75 272 LINE",
"75 122 OFFCURVE",
"197 0 OFFCURVE",
"347 0 CURVE",
"402 0 OFFCURVE",
"455 17 OFFCURVE",
"501 48 CURVE",
"534 0 LINE",
"617 0 LINE",
"617 459 LINE",
"347 459 LINE",
"347 334 LINE",
"492 334 LINE",
"492 280 LINE",
"492 276 OFFCURVE",
"492 274 OFFCURVE",
"492 272 CURVE",
"492 191 OFFCURVE",
"427 125 OFFCURVE",
"347 125 CURVE",
"266 125 OFFCURVE",
"200 191 OFFCURVE",
"200 272 CURVE",
"200 564 LINE",
"200 643 OFFCURVE",
"266 709 OFFCURVE",
"347 709 CURVE",
"427 709 OFFCURVE",
"492 643 OFFCURVE",
"492 564 CURVE",
"617 564 LINE",
"617 713 OFFCURVE",
"496 834 OFFCURVE",
"347 834 CURVE",
"197 834 OFFCURVE",
"75 713 OFFCURVE",
"75 564 CURVE"
);
}
);
width = 725;
}
);
unicode = 0047;
},
{
glyphname = H;
lastChange = "2017-12-13 17:14:23 +0000";
layers = (
{
layerId = "AD39E6C8-8F9C-453F-B2FE-0131B3A51D2D";
paths = (
{
closed = 1;
nodes = (
"562 375 LINE",
"269 375 LINE",
"269 0 LINE",
"142 0 LINE",
"142 834 LINE",
"269 834 LINE",
"269 502 LINE",
"562 502 LINE",
"562 834 LINE",
"686 834 LINE",
"686 0 LINE",
"562 0 LINE"
);
}
);
width = 828;
}
);
unicode = 0048;
},
{
glyphname = I;
lastChange = "2017-12-13 17:15:19 +0000";
layers = (
{
layerId = "AD39E6C8-8F9C-453F-B2FE-0131B3A51D2D";
paths = (
{
closed = 1;
nodes = (
"142 834 LINE",
"267 834 LINE",
"267 0 LINE",
"142 0 LINE"
);
}
);
width = 409;
}
);
unicode = 0049;
},
{
glyphname = J;
lastChange = "2017-12-13 17:38:28 +0000";
layers = (
{
layerId = "AD39E6C8-8F9C-453F-B2FE-0131B3A51D2D";
paths = (
{
closed = 1;
nodes = (
"0 229 LINE",
"0 102 OFFCURVE",
"102 0 OFFCURVE",
"229 0 CURVE",
"356 0 OFFCURVE",
"460 102 OFFCURVE",
"460 229 CURVE",
"460 834 LINE",
"333 834 LINE",
"333 229 LINE",
"333 172 OFFCURVE",
"287 125 OFFCURVE",
"229 125 CURVE",
"171 125 OFFCURVE",
"125 172 OFFCURVE",
"125 229 CURVE"
);
}
);
width = 602;
}
);
unicode = 004A;
},
{
glyphname = K;
lastChange = "2017-12-13 17:38:38 +0000";
layers = (
{
layerId = "AD39E6C8-8F9C-453F-B2FE-0131B3A51D2D";
paths = (
{
closed = 1;
nodes = (
"267 0 LINE",
"142 0 LINE",
"142 834 LINE",
"267 834 LINE",
"267 433 LINE",
"534 834 LINE",
"684 834 LINE",
"446 479 LINE",
"684 0 LINE",
"542 0 LINE",
"367 358 LINE",
"267 208 LINE"
);
}
);
width = 709;
}
);
unicode = 004B;
},
{
glyphname = L;
lastChange = "2017-12-13 17:38:44 +0000";
layers = (
{
layerId = "AD39E6C8-8F9C-453F-B2FE-0131B3A51D2D";
paths = (
{
closed = 1;
nodes = (
"142 834 LINE",
"267 834 LINE",
"267 125 LINE",
"559 125 LINE",
"559 0 LINE",
"142 0 LINE"
);
}
);
width = 559;
}
);
unicode = 004C;
},
{
glyphname = M;
lastChange = "2017-12-13 17:19:17 +0000";
layers = (
{
layerId = "AD39E6C8-8F9C-453F-B2FE-0131B3A51D2D";
paths = (
{
closed = 1;
nodes = (
"683 542 LINE",
"683 0 LINE",
"808 0 LINE",
"808 834 LINE",
"666 834 LINE",
"473 359 LINE",
"281 834 LINE",
"142 834 LINE",
"142 0 LINE",
"265 0 LINE",
"265 542 LINE",
"473 0 LINE"
);
}
);
width = 950;
}
);
unicode = 004D;
},
{
glyphname = N;
lastChange = "2017-12-13 17:14:32 +0000";
layers = (
{
layerId = "AD39E6C8-8F9C-453F-B2FE-0131B3A51D2D";
paths = (
{
closed = 1;
nodes = (
"142 834 LINE",
"267 834 LINE",
"559 272 LINE",
"559 834 LINE",
"684 834 LINE",
"684 0 LINE",
"559 0 LINE",
"267 563 LINE",
"267 0 LINE",
"142 0 LINE"
);
}
);
width = 826;
}
);
unicode = 004E;
},
{
glyphname = O;
lastChange = "2017-12-13 17:20:01 +0000";
layers = (
{
layerId = "AD39E6C8-8F9C-453F-B2FE-0131B3A51D2D";
paths = (
{
closed = 1;
nodes = (
"492 191 OFFCURVE",
"427 125 OFFCURVE",
"347 125 CURVE",
"266 125 OFFCURVE",
"200 191 OFFCURVE",
"200 272 CURVE",
"200 564 LINE",
"200 643 OFFCURVE",
"266 709 OFFCURVE",
"347 709 CURVE",
"427 709 OFFCURVE",
"492 643 OFFCURVE",
"492 564 CURVE",
"492 272 LINE"
);
},
{
closed = 1;
nodes = (
"617 564 LINE",
"617 713 OFFCURVE",
"496 834 OFFCURVE",
"347 834 CURVE",
"197 834 OFFCURVE",
"75 713 OFFCURVE",
"75 564 CURVE",
"75 272 LINE",
"75 122 OFFCURVE",
"197 0 OFFCURVE",
"347 0 CURVE",
"496 0 OFFCURVE",
"617 122 OFFCURVE",
"617 272 CURVE"
);
}
);
width = 692;
}
);
unicode = 004F;
},
{
glyphname = Odieresis;
lastChange = "2017-12-13 17:20:10 +0000";
layers = (
{
layerId = "AD39E6C8-8F9C-453F-B2FE-0131B3A51D2D";
paths = (
{
closed = 1;
nodes = (
"491 191 OFFCURVE",
"428 125 OFFCURVE",
"347 125 CURVE",
"267 125 OFFCURVE",
"200 191 OFFCURVE",
"200 272 CURVE",
"200 563 LINE",
"200 644 OFFCURVE",
"267 708 OFFCURVE",
"347 708 CURVE",
"428 708 OFFCURVE",
"491 644 OFFCURVE",
"491 563 CURVE",
"491 272 LINE"
);
},
{
closed = 1;
nodes = (
"617 563 LINE",
"617 713 OFFCURVE",
"496 834 OFFCURVE",
"347 834 CURVE",
"198 834 OFFCURVE",
"75 713 OFFCURVE",
"75 563 CURVE",
"75 272 LINE",
"75 123 OFFCURVE",
"198 0 OFFCURVE",
"347 0 CURVE",
"496 0 OFFCURVE",
"617 123 OFFCURVE",
"617 272 CURVE"
);
},
{
closed = 1;
nodes = (
"155 971 OFFCURVE",
"186 1000 OFFCURVE",
"222 1000 CURVE",
"258 1000 OFFCURVE",
"288 971 OFFCURVE",
"288 933 CURVE",
"288 897 OFFCURVE",
"258 868 OFFCURVE",
"222 868 CURVE",
"186 868 OFFCURVE",
"155 897 OFFCURVE",
"155 933 CURVE",
"155 933 LINE"
);
},
{
closed = 1;
nodes = (
"406 971 OFFCURVE",
"435 1000 OFFCURVE",
"472 1000 CURVE",
"509 1000 OFFCURVE",
"538 971 OFFCURVE",
"538 933 CURVE",
"538 897 OFFCURVE",
"509 868 OFFCURVE",
"472 868 CURVE",
"435 868 OFFCURVE",
"406 897 OFFCURVE",
"406 933 CURVE",
"406 933 LINE"
);
}
);
width = 692;
}
);
unicode = 00D6;
},
{
glyphname = P;
lastChange = "2017-12-13 17:39:14 +0000";
layers = (
{
layerId = "AD39E6C8-8F9C-453F-B2FE-0131B3A51D2D";
paths = (
{
closed = 1;
nodes = (
"267 709 LINE",
"430 709 LINE",
"478 709 OFFCURVE",
"517 669 OFFCURVE",
"517 622 CURVE",
"517 588 LINE",
"517 540 OFFCURVE",
"478 500 OFFCURVE",
"430 500 CURVE",
"267 500 LINE"
);
},
{
closed = 1;
nodes = (
"430 375 LINE",
"547 375 OFFCURVE",
"642 471 OFFCURVE",
"642 588 CURVE",
"642 622 LINE",
"642 739 OFFCURVE",
"547 834 OFFCURVE",
"430 834 CURVE",
"142 834 LINE",
"142 0 LINE",
"267 0 LINE",
"267 375 LINE"
);
}
);
width = 675;
}
);
unicode = 0050;
},
{
glyphname = Q;
lastChange = "2017-12-13 17:21:36 +0000";
layers = (
{
layerId = "AD39E6C8-8F9C-453F-B2FE-0131B3A51D2D";
paths = (
{
closed = 1;
nodes = (
"492 564 LINE",
"492 643 OFFCURVE",
"428 710 OFFCURVE",
"347 710 CURVE",
"267 710 OFFCURVE",
"201 643 OFFCURVE",
"201 564 CURVE",
"201 272 LINE",
"201 191 OFFCURVE",
"267 125 OFFCURVE",
"347 125 CURVE",
"428 125 OFFCURVE",
"492 191 OFFCURVE",
"492 272 CURVE"
);
},
{
closed = 1;
nodes = (
"619 212 OFFCURVE",
"598 155 OFFCURVE",
"563 107 CURVE",
"587 95 OFFCURVE",
"613 88 OFFCURVE",
"639 88 CURVE",
"639 -37 LINE",
"579 -37 OFFCURVE",
"523 -8 OFFCURVE",
"489 41 CURVE",
"447 14 OFFCURVE",
"398 0 OFFCURVE",
"347 0 CURVE",
"197 0 OFFCURVE",
"75 122 OFFCURVE",
"75 272 CURVE",
"75 564 LINE",
"75 714 OFFCURVE",
"197 834 OFFCURVE",
"347 834 CURVE",
"496 834 OFFCURVE",
"619 714 OFFCURVE",
"619 564 CURVE",
"619 272 LINE"
);
}
);
width = 714;
}
);
unicode = 0051;
},
{
glyphname = R;
lastChange = "2017-12-13 17:39:28 +0000";
layers = (
{
layerId = "AD39E6C8-8F9C-453F-B2FE-0131B3A51D2D";
paths = (
{
closed = 1;
nodes = (
"267 0 LINE",
"142 0 LINE",
"142 834 LINE",
"430 834 LINE",
"547 834 OFFCURVE",
"642 738 OFFCURVE",
"642 620 CURVE",
"642 587 LINE",
"642 498 OFFCURVE",
"586 418 OFFCURVE",
"502 388 CURVE",
"642 0 LINE",
"509 0 LINE",
"373 375 LINE",
"267 375 LINE"
);
},
{
closed = 1;
nodes = (
"430 500 LINE",
"478 500 OFFCURVE",
"517 539 OFFCURVE",
"517 587 CURVE",
"517 620 LINE",
"517 669 OFFCURVE",
"478 709 OFFCURVE",
"430 709 CURVE",
"267 709 LINE",
"267 500 LINE"
);
}
);
width = 709;
}
);
unicode = 0052;
},
{
glyphname = S;
lastChange = "2017-12-13 17:22:54 +0000";
layers = (
{
layerId = "AD39E6C8-8F9C-453F-B2FE-0131B3A51D2D";
paths = (
{
closed = 1;
nodes = (
"309 834 LINE",
"187 834 OFFCURVE",
"89 735 OFFCURVE",
"89 612 CURVE",
"89 519 OFFCURVE",
"148 435 OFFCURVE",
"236 404 CURVE",
"409 344 LINE",
"434 335 OFFCURVE",
"456 317 OFFCURVE",
"470 294 CURVE",
"482 272 OFFCURVE",
"484 245 OFFCURVE",
"476 222 CURVE",
"456 163 OFFCURVE",
"400 125 OFFCURVE",
"339 125 CURVE",
"258 125 OFFCURVE",
"192 191 OFFCURVE",
"192 270 CURVE",
"67 270 LINE",
"67 122 OFFCURVE",
"189 0 OFFCURVE",
"339 0 CURVE",
"372 0 LINE",
"503 0 OFFCURVE",
"609 106 OFFCURVE",
"609 237 CURVE",
"609 338 OFFCURVE",
"546 429 OFFCURVE",
"451 462 CURVE",
"278 522 LINE",
"240 536 OFFCURVE",
"214 572 OFFCURVE",
"214 612 CURVE",
"214 666 OFFCURVE",
"257 709 OFFCURVE",
"309 709 CURVE",
"367 709 LINE",
"421 709 OFFCURVE",
"464 666 OFFCURVE",
"464 612 CURVE",
"589 612 LINE",
"589 735 OFFCURVE",
"490 834 OFFCURVE",
"367 834 CURVE"
);
},
{
closed = 0;
nodes = (
"309 709 LINE",
"367 709 LINE"
);
}
);
width = 676;
}
);
unicode = 0053;
},
{
glyphname = T;
lastChange = "2017-12-13 17:23:32 +0000";
layers = (
{
layerId = "AD39E6C8-8F9C-453F-B2FE-0131B3A51D2D";
paths = (
{
closed = 1;
nodes = (
"557 834 LINE",
"557 709 LINE",
"349 709 LINE",
"349 0 LINE",
"225 0 LINE",
"225 709 LINE",
"17 709 LINE",
"17 834 LINE"
);
}
);
width = 574;
}
);
unicode = 0054;
},
{
glyphname = U;
lastChange = "2017-12-13 17:14:29 +0000";
layers = (
{
layerId = "AD39E6C8-8F9C-453F-B2FE-0131B3A51D2D";
paths = (
{
closed = 1;
nodes = (
"142 122 OFFCURVE",
"263 0 OFFCURVE",
"414 0 CURVE",
"562 0 OFFCURVE",
"684 122 OFFCURVE",
"684 270 CURVE",
"684 834 LINE",
"559 834 LINE",
"559 270 LINE",
"559 191 OFFCURVE",
"493 125 OFFCURVE",
"414 125 CURVE",
"333 125 OFFCURVE",
"267 191 OFFCURVE",
"267 270 CURVE",
"267 834 LINE",
"142 834 LINE",
"142 270 LINE"
);
}
);
width = 826;
}
);
unicode = 0055;
},
{
glyphname = V;
lastChange = "2017-12-13 17:24:15 +0000";
layers = (
{
layerId = "AD39E6C8-8F9C-453F-B2FE-0131B3A51D2D";
paths = (
{
closed = 1;
nodes = (
"176 834 LINE",
"334 250 LINE",
"493 834 LINE",
"626 834 LINE",
"396 0 LINE",
"271 0 LINE",
"42 834 LINE"
);
}
);
width = 668;
}
);
unicode = 0056;
},
{
glyphname = W;
lastChange = "2017-12-13 17:24:42 +0000";
layers = (
{
layerId = "AD39E6C8-8F9C-453F-B2FE-0131B3A51D2D";
paths = (
{
closed = 1;
nodes = (
"534 0 LINE",
"667 0 LINE",
"834 834 LINE",
"701 834 LINE",
"600 317 LINE",
"500 834 LINE",
"437 834 LINE",
"375 834 LINE",
"275 317 LINE",
"175 834 LINE",
"42 834 LINE",
"208 0 LINE",
"342 0 LINE",
"437 484 LINE"
);
}
);
width = 876;
}
);
unicode = 0057;
},
{
glyphname = X;
lastChange = "2017-12-13 17:25:11 +0000";
layers = (
{
layerId = "AD39E6C8-8F9C-453F-B2FE-0131B3A51D2D";
paths = (
{
closed = 1;
nodes = (
"67 0 LINE",
"209 0 LINE",
"337 283 LINE",
"467 0 LINE",
"609 0 LINE",
"409 440 LINE",
"588 834 LINE",
"446 834 LINE",
"337 596 LINE",
"229 834 LINE",
"87 834 LINE",
"267 440 LINE"
);
}
);
width = 676;
}
);
unicode = 0058;
},
{
glyphname = Y;
lastChange = "2017-12-13 17:23:45 +0000";
layers = (
{
layerId = "AD39E6C8-8F9C-453F-B2FE-0131B3A51D2D";
paths = (
{
closed = 1;
nodes = (
"351 0 LINE",
"351 334 LINE",
"559 834 LINE",
"418 834 LINE",
"289 524 LINE",
"159 834 LINE",
"17 834 LINE",
"226 334 LINE",
"226 0 LINE",
"289 0 LINE"
);
}
);
width = 576;
}
);
unicode = 0059;
},
{
glyphname = Z;
lastChange = "2017-12-13 17:25:32 +0000";
layers = (
{
layerId = "AD39E6C8-8F9C-453F-B2FE-0131B3A51D2D";
paths = (
{
closed = 1;
nodes = (
"83 125 LINE",
"463 709 LINE",
"104 709 LINE",
"104 834 LINE",
"605 834 LINE",
"605 709 LINE",
"224 125 LINE",
"625 125 LINE",
"625 0 LINE",
"83 0 LINE"
);
}
);
width = 708;
}
);
unicode = 005A;
},
{
glyphname = a;
lastChange = "2017-12-10 12:01:10 +0000";
layers = (
{
layerId = "AD39E6C8-8F9C-453F-B2FE-0131B3A51D2D";
paths = (
{
closed = 1;
nodes = (
"336 126 LINE",
"308 109 OFFCURVE",
"280 95 OFFCURVE",
"248 90 CURVE",
"242 89 OFFCURVE",
"242 89 OFFCURVE",
"242 89 CURVE",
"214 83 OFFCURVE",
"182 99 OFFCURVE",
"174 129 CURVE",
"172 144 OFFCURVE",
"172 158 OFFCURVE",
"177 173 CURVE",
"184 200 OFFCURVE",
"199 223 OFFCURVE",
"222 240 CURVE",
"253 269 OFFCURVE",
"293 289 OFFCURVE",
"336 299 CURVE"
);
},
{
closed = 1;
nodes = (
"438 576 OFFCURVE",
"338 642 OFFCURVE",
"232 621 CURVE",
"143 603 OFFCURVE",
"80 524 OFFCURVE",
"80 433 CURVE",
"207 433 LINE",
"207 459 OFFCURVE",
"224 484 OFFCURVE",
"248 494 CURVE",
"283 507 OFFCURVE",
"323 489 OFFCURVE",
"336 454 CURVE",
"336 368 LINE",
"227 363 OFFCURVE",
"125 307 OFFCURVE",
"60 215 CURVE",
"32 150 OFFCURVE",
"44 74 OFFCURVE",
"93 20 CURVE",
"115 3 OFFCURVE",
"143 -5 OFFCURVE",
"172 -5 CURVE",
"229 -8 OFFCURVE",
"286 8 OFFCURVE",
"336 38 CURVE",
"336 0 LINE",
"461 0 LINE",
"461 472 LINE"
);
}
);
width = 527;
}
);
leftMetricsKey = v;
rightMetricsKey = h;
unicode = 0061;
},
{
glyphname = adieresis;
lastChange = "2017-12-10 12:02:38 +0000";
layers = (
{
layerId = "AD39E6C8-8F9C-453F-B2FE-0131B3A51D2D";
paths = (
{
closed = 1;
nodes = (
"440 834 LINE",
"440 707 LINE",
"316 707 LINE",
"316 834 LINE"
);
},
{
closed = 1;
nodes = (
"215 834 LINE",
"215 707 LINE",
"91 707 LINE",
"91 834 LINE"
);
},
{
closed = 1;
nodes = (
"333 127 LINE",
"303 110 OFFCURVE",
"274 97 OFFCURVE",
"242 92 CURVE",
"237 91 OFFCURVE",
"237 91 OFFCURVE",
"237 91 CURVE",
"208 83 OFFCURVE",
"179 100 OFFCURVE",
"171 127 CURVE",
"169 144 OFFCURVE",
"171 159 OFFCURVE",
"176 174 CURVE",
"184 198 OFFCURVE",
"198 223 OFFCURVE",
"218 240 CURVE",
"252 269 OFFCURVE",
"291 289 OFFCURVE",
"333 298 CURVE"
);
},
{
closed = 1;
nodes = (
"436 573 OFFCURVE",
"333 639 OFFCURVE",
"230 617 CURVE",
"142 597 OFFCURVE",
"78 521 OFFCURVE",
"78 431 CURVE",
"203 431 LINE",
"203 458 OFFCURVE",
"220 482 OFFCURVE",
"247 492 CURVE",
"281 504 OFFCURVE",
"318 487 OFFCURVE",
"333 453 CURVE",
"333 367 LINE",
"223 362 OFFCURVE",
"122 306 OFFCURVE",
"61 215 CURVE",
"32 152 OFFCURVE",
"44 76 OFFCURVE",
"91 22 CURVE",
"113 5 OFFCURVE",
"140 -5 OFFCURVE",
"169 -2 CURVE",
"225 -5 OFFCURVE",
"281 10 OFFCURVE",
"333 39 CURVE",
"333 0 LINE",
"458 0 LINE",
"458 470 LINE"
);
}
);
width = 524;
}
);
leftMetricsKey = v;
rightMetricsKey = h;
unicode = 00E4;
},
{
glyphname = aring;
lastChange = "2017-12-10 12:02:58 +0000";
layers = (
{
layerId = "AD39E6C8-8F9C-453F-B2FE-0131B3A51D2D";
paths = (
{
closed = 1;
nodes = (
"240 765 OFFCURVE",
"255 777 OFFCURVE",
"270 777 CURVE",
"287 777 OFFCURVE",
"300 765 OFFCURVE",
"300 750 CURVE",
"300 732 OFFCURVE",
"287 719 OFFCURVE",
"270 719 CURVE",
"255 719 OFFCURVE",
"240 732 OFFCURVE",
"240 750 CURVE"
);
},
{
closed = 1;
nodes = (
"355 794 OFFCURVE",
"317 834 OFFCURVE",
"270 834 CURVE",
"226 834 OFFCURVE",
"185 794 OFFCURVE",
"185 750 CURVE",
"185 702 OFFCURVE",
"226 665 OFFCURVE",
"270 665 CURVE",
"317 665 OFFCURVE",
"355 702 OFFCURVE",
"355 750 CURVE"
);
},
{
closed = 1;
nodes = (
"338 127 LINE",
"310 110 OFFCURVE",
"278 99 OFFCURVE",
"248 91 CURVE",
"243 90 OFFCURVE",
"243 90 OFFCURVE",
"243 90 CURVE",
"213 83 OFFCURVE",
"183 100 OFFCURVE",
"173 130 CURVE",
"173 144 OFFCURVE",
"173 159 OFFCURVE",
"178 174 CURVE",
"185 201 OFFCURVE",
"201 224 OFFCURVE",
"221 242 CURVE",
"255 271 OFFCURVE",
"295 291 OFFCURVE",
"338 301 CURVE"
);
},
{
closed = 1;
nodes = (
"442 580 OFFCURVE",
"340 648 OFFCURVE",
"233 625 CURVE",
"143 608 OFFCURVE",
"79 528 OFFCURVE",
"79 435 CURVE",
"206 435 LINE",
"206 463 OFFCURVE",
"223 488 OFFCURVE",
"250 498 CURVE",
"285 511 OFFCURVE",
"324 493 OFFCURVE",
"338 458 CURVE",
"338 371 LINE",
"226 366 OFFCURVE",
"123 308 OFFCURVE",
"62 217 CURVE",
"31 152 OFFCURVE",
"43 75 OFFCURVE",
"91 20 CURVE",
"113 2 OFFCURVE",
"143 -5 OFFCURVE",
"170 -5 CURVE",
"231 -7 OFFCURVE",
"287 7 OFFCURVE",
"338 37 CURVE",
"338 0 LINE",
"465 0 LINE",
"465 476 LINE"
);
}
);
width = 531;
}
);
leftMetricsKey = v;
rightMetricsKey = h;
unicode = 00E5;
},
{
glyphname = b;
lastChange = "2017-12-10 11:24:59 +0000";
layers = (
{
layerId = "AD39E6C8-8F9C-453F-B2FE-0131B3A51D2D";
paths = (
{
closed = 1;
nodes = (
"505 128 LINE",
"494 56 OFFCURVE",
"430 3 OFFCURVE",
"356 0 CURVE",
"307 5 OFFCURVE",
"258 23 OFFCURVE",
"213 49 CURVE",
"213 0 LINE",
"88 0 LINE",
"88 834 LINE",
"213 834 LINE",
"213 577 LINE",
"258 601 OFFCURVE",
"307 619 OFFCURVE",
"356 626 CURVE",
"440 626 OFFCURVE",
"505 560 OFFCURVE",
"505 476 CURVE",
"505 471 LINE"
);
},
{
closed = 1;
nodes = (
"213 184 LINE",
"213 138 OFFCURVE",
"253 100 OFFCURVE",
"297 100 CURVE",
"343 100 OFFCURVE",
"381 138 OFFCURVE",
"381 184 CURVE",
"381 442 LINE",
"381 488 OFFCURVE",
"343 525 OFFCURVE",
"297 525 CURVE",
"253 525 OFFCURVE",
"213 488 OFFCURVE",
"213 442 CURVE"
);
}
);
width = 571;
}
);
leftMetricsKey = l;
rightMetricsKey = h;
unicode = 0062;
},
{
glyphname = c;
lastChange = "2017-12-10 11:26:16 +0000";
layers = (
{
layerId = "AD39E6C8-8F9C-453F-B2FE-0131B3A51D2D";
paths = (
{
closed = 1;
nodes = (
"66 208 LINE",
"66 93 OFFCURVE",
"159 0 OFFCURVE",
"274 0 CURVE",
"389 0 OFFCURVE",
"482 93 OFFCURVE",
"482 208 CURVE",
"482 211 OFFCURVE",
"482 215 OFFCURVE",
"482 218 CURVE",
"357 218 LINE",
"357 215 OFFCURVE",
"357 211 OFFCURVE",
"357 208 CURVE",
"357 164 OFFCURVE",
"318 125 OFFCURVE",
"274 125 CURVE",
"228 125 OFFCURVE",
"191 164 OFFCURVE",
"191 208 CURVE",
"191 416 LINE",
"191 419 OFFCURVE",
"191 424 OFFCURVE",
"191 426 CURVE",
"195 470 OFFCURVE",
"235 504 OFFCURVE",
"281 500 CURVE",
"328 495 OFFCURVE",
"360 456 OFFCURVE",
"357 409 CURVE",
"482 409 LINE",
"485 524 OFFCURVE",
"397 620 OFFCURVE",
"281 625 CURVE",
"167 629 OFFCURVE",
"71 541 OFFCURVE",
"66 426 CURVE",
"66 424 OFFCURVE",
"66 419 OFFCURVE",
"66 416 CURVE"
);
}
);
width = 548;
}
);
leftMetricsKey = o;
rightMetricsKey = o;
unicode = 0063;
},
{
glyphname = d;
lastChange = "2017-12-10 11:26:16 +0000";
layers = (
{
layerId = "AD39E6C8-8F9C-453F-B2FE-0131B3A51D2D";
paths = (
{
closed = 1;
nodes = (
"358 130 OFFCURVE",
"321 93 OFFCURVE",
"275 93 CURVE",
"230 93 OFFCURVE",
"191 130 OFFCURVE",
"191 177 CURVE",
"191 442 LINE",
"191 488 OFFCURVE",
"230 525 OFFCURVE",
"275 525 CURVE",
"321 525 OFFCURVE",
"358 488 OFFCURVE",
"358 442 CURVE",
"358 177 LINE"
);
},
{
closed = 1;
nodes = (
"358 834 LINE",
"358 579 LINE",
"346 586 OFFCURVE",
"334 591 OFFCURVE",
"321 596 CURVE",
"272 616 LINE",
"194 645 OFFCURVE",
"108 609 OFFCURVE",
"78 530 CURVE",
"71 513 OFFCURVE",
"66 496 OFFCURVE",
"66 476 CURVE",
"66 150 LINE",
"66 69 OFFCURVE",
"132 2 OFFCURVE",
"213 0 CURVE",
"265 0 OFFCURVE",
"314 15 OFFCURVE",
"358 39 CURVE",
"358 0 LINE",
"486 0 LINE",
"486 834 LINE"
);
}
);
width = 574;
}
);
leftMetricsKey = o;
rightMetricsKey = l;
unicode = 0064;
},
{
glyphname = e;
lastChange = "2017-12-10 11:26:10 +0000";
layers = (
{
layerId = "AD39E6C8-8F9C-453F-B2FE-0131B3A51D2D";
paths = (
{
closed = 1;
nodes = (
"352 409 LINE",
"195 409 LINE",
"191 409 LINE",
"191 414 OFFCURVE",
"191 422 OFFCURVE",
"191 426 CURVE",
"195 471 OFFCURVE",
"237 505 OFFCURVE",
"281 500 CURVE",
"328 495 OFFCURVE",
"362 456 OFFCURVE",
"357 409 CURVE"
);
},
{
closed = 1;
nodes = (
"66 208 LINE",
"66 93 OFFCURVE",
"159 0 OFFCURVE",
"274 0 CURVE",
"389 0 OFFCURVE",
"482 93 OFFCURVE",
"482 208 CURVE",
"357 208 LINE",
"357 208 OFFCURVE",
"357 208 OFFCURVE",
"357 208 CURVE",
"357 164 OFFCURVE",
"320 125 OFFCURVE",
"274 125 CURVE",
"227 125 OFFCURVE",
"191 164 OFFCURVE",
"191 208 CURVE",
"191 301 LINE",
"195 301 LINE",
"482 301 LINE",
"482 417 LINE",
"482 532 OFFCURVE",
"389 625 OFFCURVE",
"274 625 CURVE",
"159 625 OFFCURVE",
"66 532 OFFCURVE",
"66 417 CURVE"
);
}
);
width = 548;
}
);
leftMetricsKey = o;
rightMetricsKey = o;
unicode = 0065;
},
{
glyphname = f;
lastChange = "2017-12-10 11:32:09 +0000";
layers = (
{
layerId = "AD39E6C8-8F9C-453F-B2FE-0131B3A51D2D";
paths = (
{
closed = 1;
nodes = (
"265 625 LINE",
"260 625 LINE",
"260 625 OFFCURVE",
"260 625 OFFCURVE",
"260 625 CURVE",
"257 673 OFFCURVE",
"289 715 OFFCURVE",
"337 717 CURVE",
"337 844 LINE",
"222 841 OFFCURVE",
"133 747 OFFCURVE",
"133 633 CURVE",
"133 625 LINE",
"66 625 LINE",
"66 516 LINE",
"133 516 LINE",
"133 0 LINE",
"260 0 LINE",
"260 516 LINE",
"265 516 LINE",
"337 516 LINE",
"337 625 LINE"
);
}
);
width = 403;
}
);
leftMetricsKey = o;
rightMetricsKey = h;
unicode = 0066;
},
{
glyphname = g;
lastChange = "2017-12-10 11:26:59 +0000";
layers = (
{
layerId = "AD39E6C8-8F9C-453F-B2FE-0131B3A51D2D";
paths = (
{
closed = 1;
nodes = (
"360 128 OFFCURVE",
"322 90 OFFCURVE",
"276 90 CURVE",
"232 90 OFFCURVE",
"192 128 OFFCURVE",
"192 175 CURVE",
"192 437 LINE",
"192 485 OFFCURVE",
"232 522 OFFCURVE",
"276 522 CURVE",
"322 522 OFFCURVE",
"360 485 OFFCURVE",
"360 437 CURVE",
"360 175 LINE"
);
},
{
closed = 1;
nodes = (
"360 625 LINE",
"360 583 LINE",
"317 610 OFFCURVE",
"269 623 OFFCURVE",
"219 625 CURVE",
"136 625 OFFCURVE",
"66 559 OFFCURVE",
"66 475 CURVE",
"66 150 LINE",
"66 66 OFFCURVE",
"136 -3 OFFCURVE",
"217 -3 CURVE",
"266 -3 OFFCURVE",
"315 7 OFFCURVE",
"362 27 CURVE",
"360 27 OFFCURVE",
"360 24 OFFCURVE",
"360 24 CURVE",
"342 -20 OFFCURVE",
"295 -43 OFFCURVE",
"251 -25 CURVE",
"219 -148 LINE",
"330 -183 OFFCURVE",
"446 -121 OFFCURVE",
"480 -10 CURVE",
"483 -3 OFFCURVE",
"485 5 OFFCURVE",
"485 10 CURVE",
"485 625 LINE"
);
}
);
width = 551;
}
);
leftMetricsKey = o;
rightMetricsKey = h;
unicode = 0067;
},
{
glyphname = h;
lastChange = "2017-12-10 11:24:30 +0000";
layers = (
{
layerId = "AD39E6C8-8F9C-453F-B2FE-0131B3A51D2D";
paths = (
{
closed = 1;
nodes = (
"478 586 OFFCURVE",
"421 625 OFFCURVE",
"358 625 CURVE",
"308 625 OFFCURVE",
"257 613 OFFCURVE",
"213 589 CURVE",
"213 834 LINE",
"88 834 LINE",
"88 0 LINE",
"213 0 LINE",
"213 444 LINE",
"213 488 OFFCURVE",
"250 527 OFFCURVE",
"296 527 CURVE",
"343 527 OFFCURVE",
"380 488 OFFCURVE",
"380 444 CURVE",
"380 0 LINE",
"505 0 LINE",
"505 515 LINE",
"505 518 OFFCURVE",
"505 522 OFFCURVE",
"502 527 CURVE"
);
}
);
width = 571;
}
);
leftMetricsKey = l;
unicode = 0068;
},
{
glyphname = i;
lastChange = "2017-12-10 11:22:31 +0000";
layers = (
{
layerId = "AD39E6C8-8F9C-453F-B2FE-0131B3A51D2D";
paths = (
{
closed = 1;
nodes = (
"88 625 LINE",
"213 625 LINE",
"213 0 LINE",
"88 0 LINE"
);
},
{
closed = 1;
nodes = (
"213 833 LINE",
"213 708 LINE",
"88 708 LINE",
"88 833 LINE"
);
}
);
width = 301;
}
);
leftMetricsKey = l;
rightMetricsKey = l;
unicode = 0069;
},
{
glyphname = j;
lastChange = "2017-12-10 11:26:16 +0000";
layers = (
{
layerId = "AD39E6C8-8F9C-453F-B2FE-0131B3A51D2D";
paths = (
{
closed = 1;
nodes = (
"143 625 LINE",
"143 -1 LINE",
"143 -30 OFFCURVE",
"118 -55 OFFCURVE",
"89 -55 CURVE",
"66 -180 LINE",
"165 -189 OFFCURVE",
"253 -121 OFFCURVE",
"265 -23 CURVE",
"265 -15 OFFCURVE",
"268 -8 OFFCURVE",
"268 -1 CURVE",
"268 625 LINE"
);
},
{
closed = 1;
nodes = (
"143 834 LINE",
"143 708 LINE",
"268 708 LINE",
"268 834 LINE"
);
}
);
width = 334;
}
);
leftMetricsKey = o;
rightMetricsKey = h;
unicode = 006A;
},
{
glyphname = k;
lastChange = "2017-12-10 11:29:30 +0000";
layers = (
{
layerId = "AD39E6C8-8F9C-453F-B2FE-0131B3A51D2D";
paths = (
{
closed = 1;
nodes = (
"356 618 LINE",
"226 417 LINE",
"214 398 LINE",
"214 834 LINE",
"88 834 LINE",
"88 0 LINE",
"214 0 LINE",
"214 167 LINE",
"278 270 LINE",
"373 0 LINE",
"505 0 LINE",
"364 402 LINE",
"505 618 LINE"
);
}
);
width = 560;
}
);
leftMetricsKey = l;
unicode = 006B;
},
{
glyphname = l;
lastChange = "2017-12-10 11:22:24 +0000";
layers = (
{
layerId = "AD39E6C8-8F9C-453F-B2FE-0131B3A51D2D";
paths = (
{
closed = 1;
nodes = (
"88 834 LINE",
"213 834 LINE",
"213 0 LINE",
"88 0 LINE"
);
}
);
width = 301;
}
);
unicode = 006C;
},
{
glyphname = m;
lastChange = "2017-12-10 11:25:16 +0000";
layers = (
{
layerId = "AD39E6C8-8F9C-453F-B2FE-0131B3A51D2D";
paths = (
{
closed = 1;
nodes = (
"612 625 LINE",
"556 625 OFFCURVE",
"502 610 OFFCURVE",
"453 583 CURVE",
"424 610 OFFCURVE",
"387 625 OFFCURVE",
"345 625 CURVE",
"311 625 LINE",
"277 620 OFFCURVE",
"243 608 OFFCURVE",
"213 593 CURVE",
"213 625 LINE",
"88 625 LINE",
"88 0 LINE",
"213 0 LINE",
"213 441 LINE",
"213 488 OFFCURVE",
"250 525 OFFCURVE",
"296 525 CURVE",
"343 525 OFFCURVE",
"380 488 OFFCURVE",
"380 441 CURVE",
"380 0 LINE",
"505 0 LINE",
"505 441 LINE",
"505 488 OFFCURVE",
"541 525 OFFCURVE",
"588 525 CURVE",
"635 525 OFFCURVE",
"671 488 OFFCURVE",
"671 441 CURVE",
"671 0 LINE",
"796 0 LINE",
"796 466 LINE",
"796 554 OFFCURVE",
"725 625 OFFCURVE",
"637 625 CURVE"
);
}
);
width = 862;
}
);
leftMetricsKey = l;
rightMetricsKey = h;
unicode = 006D;
},
{
glyphname = n;
lastChange = "2017-12-10 11:25:21 +0000";
layers = (
{
layerId = "AD39E6C8-8F9C-453F-B2FE-0131B3A51D2D";
paths = (
{
closed = 1;
nodes = (
"311 625 LINE",
"277 620 OFFCURVE",
"242 608 OFFCURVE",
"213 593 CURVE",
"213 625 LINE",
"88 625 LINE",
"88 0 LINE",
"213 0 LINE",
"213 441 LINE",
"213 488 OFFCURVE",
"250 525 OFFCURVE",
"296 525 CURVE",
"343 525 OFFCURVE",
"380 488 OFFCURVE",
"380 441 CURVE",
"380 0 LINE",
"505 0 LINE",
"505 466 LINE",
"505 554 OFFCURVE",
"434 625 OFFCURVE",
"345 625 CURVE"
);
}
);
width = 571;
}
);
leftMetricsKey = l;
rightMetricsKey = h;
unicode = 006E;
},
{
glyphname = o;
lastChange = "2017-12-10 11:26:01 +0000";
layers = (
{
layerId = "AD39E6C8-8F9C-453F-B2FE-0131B3A51D2D";
paths = (
{
closed = 0;
nodes = (
"66 -1248 LINE"
);
},
{
closed = 1;
nodes = (
"66 93 OFFCURVE",
"159 0 OFFCURVE",
"274 0 CURVE",
"389 0 OFFCURVE",
"482 93 OFFCURVE",
"482 209 CURVE",
"482 417 LINE",
"482 532 OFFCURVE",
"389 625 OFFCURVE",
"274 625 CURVE",
"159 625 OFFCURVE",
"66 532 OFFCURVE",
"66 417 CURVE",
"66 209 LINE"
);
},
{
closed = 1;
nodes = (
"191 417 LINE",
"191 464 OFFCURVE",
"229 500 OFFCURVE",
"274 500 CURVE",
"320 500 OFFCURVE",
"357 464 OFFCURVE",
"357 417 CURVE",
"357 209 LINE",
"357 163 OFFCURVE",
"320 125 OFFCURVE",
"274 125 CURVE",
"229 125 OFFCURVE",
"191 163 OFFCURVE",
"191 209 CURVE"
);
}
);
width = 548;
}
);
unicode = 006F;
},
{
glyphname = odieresis;
lastChange = "2017-12-10 11:26:16 +0000";
layers = (
{
layerId = "AD39E6C8-8F9C-453F-B2FE-0131B3A51D2D";
paths = (
{
closed = 1;
nodes = (
"66 93 OFFCURVE",
"159 0 OFFCURVE",
"275 0 CURVE",
"390 0 OFFCURVE",
"483 93 OFFCURVE",
"483 208 CURVE",
"483 417 LINE",
"483 532 OFFCURVE",
"390 625 OFFCURVE",
"275 625 CURVE",
"159 625 OFFCURVE",
"66 532 OFFCURVE",
"66 417 CURVE",
"66 208 LINE"
);
},
{
closed = 1;
nodes = (
"451 834 LINE",
"451 709 LINE",
"326 709 LINE",
"326 834 LINE"
);
},
{
closed = 1;
nodes = (
"191 417 LINE",
"191 461 OFFCURVE",
"230 500 OFFCURVE",
"275 500 CURVE",
"321 500 OFFCURVE",
"358 461 OFFCURVE",
"358 417 CURVE",
"358 208 LINE",
"358 162 OFFCURVE",
"321 125 OFFCURVE",
"275 125 CURVE",
"230 125 OFFCURVE",
"191 162 OFFCURVE",
"191 208 CURVE"
);
},
{
closed = 1;
nodes = (
"225 834 LINE",
"225 709 LINE",
"100 709 LINE",
"100 834 LINE"
);
}
);
width = 549;
}
);
leftMetricsKey = o;
rightMetricsKey = o;
unicode = 00F6;
},
{
glyphname = p;
lastChange = "2017-12-10 11:27:54 +0000";
layers = (
{
layerId = "AD39E6C8-8F9C-453F-B2FE-0131B3A51D2D";
paths = (
{
closed = 0;
nodes = (
"88 0 LINE"
);
},
{
closed = 1;
nodes = (
"380 179 LINE",
"380 133 OFFCURVE",
"343 96 OFFCURVE",
"296 96 CURVE",
"250 96 OFFCURVE",
"213 133 OFFCURVE",
"213 179 CURVE",
"213 441 LINE",
"213 488 OFFCURVE",
"250 525 OFFCURVE",
"296 525 CURVE",
"343 525 OFFCURVE",
"380 488 OFFCURVE",
"380 441 CURVE"
);
},
{
closed = 1;
nodes = (
"306 625 OFFCURVE",
"257 610 OFFCURVE",
"213 586 CURVE",
"213 625 LINE",
"88 625 LINE",
"88 0 LINE",
"88 -166 LINE",
"213 -166 LINE",
"213 0 LINE",
"213 39 LINE",
"257 15 OFFCURVE",
"306 0 OFFCURVE",
"358 0 CURVE",
"439 3 OFFCURVE",
"505 69 OFFCURVE",
"505 150 CURVE",
"505 476 LINE",
"505 556 OFFCURVE",
"439 623 OFFCURVE",
"358 625 CURVE"
);
}
);
width = 571;
}
);
leftMetricsKey = l;
rightMetricsKey = o;
unicode = 0070;
},
{
glyphname = q;
lastChange = "2017-12-10 11:26:16 +0000";
layers = (
{
layerId = "AD39E6C8-8F9C-453F-B2FE-0131B3A51D2D";
paths = (
{
closed = 1;
nodes = (
"191 179 LINE",
"191 133 OFFCURVE",
"227 96 OFFCURVE",
"274 96 CURVE",
"321 96 OFFCURVE",
"357 133 OFFCURVE",
"357 179 CURVE",
"357 442 LINE",
"357 488 OFFCURVE",
"321 525 OFFCURVE",
"274 525 CURVE",
"227 525 OFFCURVE",
"191 488 OFFCURVE",
"191 442 CURVE"
);
},
{
closed = 1;
nodes = (
"262 625 OFFCURVE",
"313 611 OFFCURVE",
"357 586 CURVE",
"357 625 LINE",
"482 625 LINE",
"482 1 LINE",
"482 -166 LINE",
"357 -166 LINE",
"357 1 LINE",
"357 40 LINE",
"313 15 OFFCURVE",
"262 1 OFFCURVE",
"213 1 CURVE",
"129 3 OFFCURVE",
"66 69 OFFCURVE",
"66 150 CURVE",
"66 476 LINE",
"66 557 OFFCURVE",
"129 623 OFFCURVE",
"213 625 CURVE"
);
}
);
width = 570;
}
);
leftMetricsKey = o;
rightMetricsKey = l;
unicode = 0071;
},
{
glyphname = r;
lastChange = "2017-12-10 11:33:43 +0000";
layers = (
{
layerId = "AD39E6C8-8F9C-453F-B2FE-0131B3A51D2D";
paths = (
{
closed = 1;
nodes = (
"213 0 LINE",
"88 0 LINE",
"88 625 LINE",
"213 625 LINE",
"213 591 LINE",
"255 613 OFFCURVE",
"304 625 OFFCURVE",
"353 625 CURVE",
"353 493 LINE",
"321 525 OFFCURVE",
"267 525 OFFCURVE",
"235 493 CURVE",
"220 475 OFFCURVE",
"213 456 OFFCURVE",
"213 434 CURVE"
);
}
);
width = 398;
}
);
leftMetricsKey = l;
rightMetricsKey = v;
unicode = 0072;
},
{
glyphname = s;
lastChange = "2017-12-10 11:35:32 +0000";
layers = (
{
layerId = "AD39E6C8-8F9C-453F-B2FE-0131B3A51D2D";
paths = (
{
closed = 1;
nodes = (
"243 625 LINE",
"153 625 OFFCURVE",
"77 551 OFFCURVE",
"77 458 CURVE",
"77 397 OFFCURVE",
"111 341 OFFCURVE",
"163 311 CURVE",
"300 238 LINE",
"302 235 OFFCURVE",
"305 233 OFFCURVE",
"310 230 CURVE",
"334 211 OFFCURVE",
"339 169 OFFCURVE",
"317 145 CURVE",
"300 127 OFFCURVE",
"275 118 OFFCURVE",
"253 118 CURVE",
"202 118 OFFCURVE",
"160 157 OFFCURVE",
"160 208 CURVE",
"45 208 LINE",
"45 93 OFFCURVE",
"138 0 OFFCURVE",
"253 0 CURVE",
"334 0 OFFCURVE",
"408 47 OFFCURVE",
"442 120 CURVE",
"471 206 OFFCURVE",
"437 301 OFFCURVE",
"356 343 CURVE",
"221 419 LINE",
"207 426 OFFCURVE",
"197 441 OFFCURVE",
"197 458 CURVE",
"197 483 OFFCURVE",
"219 505 OFFCURVE",
"243 505 CURVE",
"268 505 LINE",
"295 505 OFFCURVE",
"315 483 OFFCURVE",
"315 458 CURVE",
"435 458 LINE",
"435 551 OFFCURVE",
"361 625 OFFCURVE",
"268 625 CURVE"
);
}
);
width = 497;
}
);
leftMetricsKey = v;
rightMetricsKey = v;
unicode = 0073;
},
{
glyphname = t;
lastChange = "2017-12-10 11:34:55 +0000";
layers = (
{
layerId = "AD39E6C8-8F9C-453F-B2FE-0131B3A51D2D";
paths = (
{
closed = 1;
nodes = (
"246 625 LINE",
"246 834 LINE",
"121 834 LINE",
"121 625 LINE",
"45 625 LINE",
"45 500 LINE",
"121 500 LINE",
"121 199 LINE",
"121 91 OFFCURVE",
"204 3 OFFCURVE",
"313 -2 CURVE",
"313 123 LINE",
"273 128 OFFCURVE",
"246 160 OFFCURVE",
"246 199 CURVE",
"246 404 LINE",
"246 500 LINE",
"313 500 LINE",
"313 625 LINE"
);
}
);
width = 379;
}
);
leftMetricsKey = v;
rightMetricsKey = f;
unicode = 0074;
},
{
glyphname = u;
lastChange = "2017-12-10 11:28:06 +0000";
layers = (
{
layerId = "AD39E6C8-8F9C-453F-B2FE-0131B3A51D2D";
paths = (
{
closed = 1;
nodes = (
"360 625 LINE",
"360 174 LINE",
"360 130 OFFCURVE",
"321 91 OFFCURVE",
"277 91 CURVE",
"231 91 OFFCURVE",
"191 130 OFFCURVE",
"191 174 CURVE",
"191 625 LINE",
"66 625 LINE",
"66 149 LINE",
"66 69 OFFCURVE",
"133 2 OFFCURVE",
"213 0 CURVE",
"265 0 OFFCURVE",
"314 15 OFFCURVE",
"360 39 CURVE",
"360 0 LINE",
"486 0 LINE",
"486 625 LINE"
);
}
);
width = 574;
}
);
leftMetricsKey = o;
rightMetricsKey = l;
unicode = 0075;
},
{
glyphname = v;
lastChange = "2017-12-06 15:21:51 +0000";
layers = (
{
layerId = "AD39E6C8-8F9C-453F-B2FE-0131B3A51D2D";
paths = (
{
closed = 1;
nodes = (
"212 0 LINE",
"337 0 LINE",
"503 625 LINE",
"378 625 LINE",
"275 233 LINE",
"170 625 LINE",
"45 625 LINE"
);
}
);
width = 548;
}
);
unicode = 0076;
},
{
glyphname = w;
lastChange = "2017-12-10 11:31:21 +0000";
layers = (
{
layerId = "AD39E6C8-8F9C-453F-B2FE-0131B3A51D2D";
paths = (
{
closed = 1;
nodes = (
"420 314 LINE",
"337 0 LINE",
"212 0 LINE",
"45 625 LINE",
"170 625 LINE",
"276 235 LINE",
"379 625 LINE",
"462 625 LINE",
"567 235 LINE",
"670 625 LINE",
"795 625 LINE",
"629 0 LINE",
"504 0 LINE"
);
}
);
width = 840;
}
);
leftMetricsKey = v;
rightMetricsKey = v;
unicode = 0077;
},
{
glyphname = x;
lastChange = "2017-12-10 11:26:16 +0000";
layers = (
{
layerId = "AD39E6C8-8F9C-453F-B2FE-0131B3A51D2D";
paths = (
{
closed = 1;
nodes = (
"503 625 LINE",
"378 625 LINE",
"294 458 LINE",
"211 625 LINE",
"86 625 LINE",
"233 333 LINE",
"66 0 LINE",
"191 0 LINE",
"294 208 LINE",
"400 0 LINE",
"525 0 LINE",
"358 333 LINE"
);
}
);
width = 591;
}
);
leftMetricsKey = o;
rightMetricsKey = o;
unicode = 0078;
},
{
glyphname = y;
lastChange = "2017-12-10 12:02:17 +0000";
layers = (
{
layerId = "AD39E6C8-8F9C-453F-B2FE-0131B3A51D2D";
paths = (
{
closed = 1;
nodes = (
"376 625 LINE",
"275 249 LINE",
"176 625 LINE",
"45 625 LINE",
"196 63 LINE",
"200 61 OFFCURVE",
"203 60 OFFCURVE",
"206 58 CURVE",
"223 50 OFFCURVE",
"230 31 OFFCURVE",
"223 14 CURVE",
"214 -3 LINE",
"201 -27 OFFCURVE",
"178 -43 OFFCURVE",
"149 -43 CURVE",
"109 -162 LINE",
"216 -182 OFFCURVE",
"316 -115 OFFCURVE",
"338 -11 CURVE",
"339 -6 OFFCURVE",
"341 -1 OFFCURVE",
"342 6 CURVE",
"507 625 LINE"
);
}
);
width = 552;
}
);
leftMetricsKey = "v+5";
rightMetricsKey = v;
unicode = 0079;
},
{
glyphname = z;
lastChange = "2017-12-10 11:26:16 +0000";
layers = (
{
layerId = "AD39E6C8-8F9C-453F-B2FE-0131B3A51D2D";
paths = (
{
closed = 1;
nodes = (
"66 125 LINE",
"362 500 LINE",
"88 500 LINE",
"88 625 LINE",
"504 625 LINE",
"504 500 LINE",
"208 125 LINE",
"524 125 LINE",
"524 0 LINE",
"66 0 LINE"
);
}
);
width = 590;
}
);
leftMetricsKey = o;
rightMetricsKey = o;
unicode = 007A;
},
{
glyphname = zero;
lastChange = "2017-12-13 17:59:29 +0000";
layers = (
{
layerId = "AD39E6C8-8F9C-453F-B2FE-0131B3A51D2D";
paths = (
{
closed = 1;
nodes = (
"441 172 OFFCURVE",
"395 125 OFFCURVE",
"336 125 CURVE",
"279 125 OFFCURVE",
"233 172 OFFCURVE",
"233 228 CURVE",
"233 603 LINE",
"233 662 OFFCURVE",
"279 709 OFFCURVE",
"336 709 CURVE",
"395 709 OFFCURVE",
"441 662 OFFCURVE",
"441 603 CURVE",
"441 228 LINE"
);
},
{
closed = 1;
nodes = (
"566 731 OFFCURVE",
"463 834 OFFCURVE",
"336 834 CURVE",
"211 834 OFFCURVE",
"108 731 OFFCURVE",
"108 603 CURVE",
"108 228 LINE",
"108 103 OFFCURVE",
"211 0 OFFCURVE",
"336 0 CURVE",
"463 0 OFFCURVE",
"566 103 OFFCURVE",
"566 228 CURVE",
"566 603 LINE"
);
}
);
width = 674;
}
);
unicode = 0030;
},
{
glyphname = one;
lastChange = "2017-12-13 17:50:53 +0000";
layers = (
{
layerId = "AD39E6C8-8F9C-453F-B2FE-0131B3A51D2D";
paths = (
{
closed = 1;
nodes = (
"116 736 OFFCURVE",
"153 780 OFFCURVE",
"170 834 CURVE",
"295 834 LINE",
"295 0 LINE",
"170 0 LINE",
"170 643 LINE",
"79 626 LINE",
"67 711 LINE"
);
}
);
width = 437;
}
);
unicode = 0031;
},
{
glyphname = two;
lastChange = "2017-12-13 17:51:48 +0000";
layers = (
{
layerId = "AD39E6C8-8F9C-453F-B2FE-0131B3A51D2D";
paths = (
{
closed = 1;
nodes = (
"83 562 LINE",
"208 562 LINE",
"208 591 LINE",
"205 618 OFFCURVE",
"213 645 OFFCURVE",
"227 667 CURVE",
"262 714 OFFCURVE",
"328 721 OFFCURVE",
"374 687 CURVE",
"421 653 OFFCURVE",
"428 589 OFFCURVE",
"394 542 CURVE",
"83 125 LINE",
"83 0 LINE",
"541 0 LINE",
"541 125 LINE",
"240 125 LINE",
"495 466 LINE",
"571 569 OFFCURVE",
"551 711 OFFCURVE",
"448 787 CURVE",
"347 863 OFFCURVE",
"203 844 OFFCURVE",
"127 741 CURVE",
"97 702 OFFCURVE",
"83 655 OFFCURVE",
"83 603 CURVE"
);
}
);
width = 633;
}
);
unicode = 0032;
},
{
glyphname = three;
lastChange = "2017-12-13 17:52:45 +0000";
layers = (
{
layerId = "AD39E6C8-8F9C-453F-B2FE-0131B3A51D2D";
paths = (
{
closed = 1;
nodes = (
"526 287 LINE",
"526 351 OFFCURVE",
"499 412 OFFCURVE",
"453 454 CURVE",
"487 493 OFFCURVE",
"504 542 OFFCURVE",
"504 591 CURVE",
"504 626 LINE",
"504 741 OFFCURVE",
"411 834 OFFCURVE",
"296 834 CURVE",
"180 834 OFFCURVE",
"87 741 OFFCURVE",
"87 626 CURVE",
"212 626 LINE",
"212 672 OFFCURVE",
"251 709 OFFCURVE",
"296 709 CURVE",
"342 709 OFFCURVE",
"379 672 OFFCURVE",
"379 626 CURVE",
"379 591 LINE",
"379 545 OFFCURVE",
"342 508 OFFCURVE",
"296 508 CURVE",
"264 508 LINE",
"264 393 LINE",
"296 393 LINE",
"354 393 OFFCURVE",
"401 346 OFFCURVE",
"401 287 CURVE",
"401 228 LINE",
"401 172 OFFCURVE",
"354 125 OFFCURVE",
"296 125 CURVE",
"239 125 OFFCURVE",
"193 172 OFFCURVE",
"193 228 CURVE",
"67 228 LINE",
"67 103 OFFCURVE",
"170 0 OFFCURVE",
"296 0 CURVE",
"423 0 OFFCURVE",
"526 103 OFFCURVE",
"526 228 CURVE"
);
}
);
width = 626;
}
);
unicode = 0033;
},
{
glyphname = four;
lastChange = "2017-12-13 17:54:09 +0000";
layers = (
{
layerId = "AD39E6C8-8F9C-453F-B2FE-0131B3A51D2D";
paths = (
{
closed = 1;
nodes = (
"187 292 LINE",
"351 581 LINE",
"351 292 LINE"
);
},
{
closed = 1;
nodes = (
"351 834 LINE",
"42 292 LINE",
"42 167 LINE",
"351 167 LINE",
"351 0 LINE",
"477 0 LINE",
"477 167 LINE",
"543 167 LINE",
"543 292 LINE",
"477 292 LINE",
"477 834 LINE"
);
}
);
width = 643;
}
);
unicode = 0034;
},
{
glyphname = five;
lastChange = "2017-12-13 17:55:05 +0000";
layers = (
{
layerId = "AD39E6C8-8F9C-453F-B2FE-0131B3A51D2D";
paths = (
{
closed = 1;
nodes = (
"255 709 LINE",
"483 709 LINE",
"476 834 LINE",
"142 834 LINE",
"100 417 LINE",
"245 383 LINE",
"265 410 OFFCURVE",
"297 424 OFFCURVE",
"328 424 CURVE",
"387 424 OFFCURVE",
"434 378 OFFCURVE",
"434 321 CURVE",
"434 228 LINE",
"434 172 OFFCURVE",
"387 125 OFFCURVE",
"328 125 CURVE",
"272 125 OFFCURVE",
"225 172 OFFCURVE",
"225 228 CURVE",
"100 228 LINE",
"100 103 OFFCURVE",
"203 0 OFFCURVE",
"328 0 CURVE",
"456 0 OFFCURVE",
"559 103 OFFCURVE",
"559 228 CURVE",
"559 321 LINE",
"559 446 OFFCURVE",
"456 549 OFFCURVE",
"328 549 CURVE",
"297 549 OFFCURVE",
"267 545 OFFCURVE",
"238 530 CURVE"
);
}
);
width = 634;
}
);
unicode = 0035;
},
{
glyphname = six;
lastChange = "2017-12-13 17:56:20 +0000";
layers = (
{
layerId = "AD39E6C8-8F9C-453F-B2FE-0131B3A51D2D";
paths = (
{
closed = 1;
nodes = (
"439 169 OFFCURVE",
"400 130 OFFCURVE",
"351 125 CURVE",
"292 120 OFFCURVE",
"241 162 OFFCURVE",
"233 221 CURVE",
"233 263 LINE",
"236 319 OFFCURVE",
"280 366 OFFCURVE",
"339 366 CURVE",
"395 368 OFFCURVE",
"444 321 OFFCURVE",
"444 263 CURVE",
"444 221 LINE"
);
},
{
closed = 1;
nodes = (
"483 834 LINE",
"326 834 LINE",
"295 795 OFFCURVE",
"263 756 OFFCURVE",
"236 714 CURVE",
"174 626 OFFCURVE",
"135 525 OFFCURVE",
"118 420 CURVE",
"113 370 LINE",
"108 277 LINE",
"108 236 LINE",
"106 108 OFFCURVE",
"206 3 OFFCURVE",
"331 0 CURVE",
"459 -2 OFFCURVE",
"562 96 OFFCURVE",
"567 221 CURVE",
"567 263 LINE",
"567 390 OFFCURVE",
"464 491 OFFCURVE",
"336 491 CURVE",
"309 491 OFFCURVE",
"282 486 OFFCURVE",
"258 476 CURVE",
"280 557 OFFCURVE",
"322 633 OFFCURVE",
"376 697 CURVE"
);
}
);
width = 650;
}
);
unicode = 0036;
},
{
glyphname = seven;
lastChange = "2017-12-13 17:57:24 +0000";
layers = (
{
layerId = "AD39E6C8-8F9C-453F-B2FE-0131B3A51D2D";
paths = (
{
closed = 1;
nodes = (
"344 461 LINE",
"356 491 LINE",
"400 599 OFFCURVE",
"427 716 OFFCURVE",
"432 834 CURVE",
"42 834 LINE",
"42 709 LINE",
"317 709 LINE",
"302 628 OFFCURVE",
"275 549 OFFCURVE",
"238 473 CURVE",
"229 446 LINE",
"194 341 OFFCURVE",
"175 228 OFFCURVE",
"175 115 CURVE",
"175 0 LINE",
"238 0 LINE",
"300 0 LINE",
"300 157 LINE",
"300 258 OFFCURVE",
"314 356 OFFCURVE",
"341 451 CURVE"
);
}
);
width = 524;
}
);
unicode = 0037;
},
{
glyphname = eight;
lastChange = "2017-12-13 17:58:35 +0000";
layers = (
{
layerId = "AD39E6C8-8F9C-453F-B2FE-0131B3A51D2D";
paths = (
{
closed = 1;
nodes = (
"225 287 LINE",
"225 346 OFFCURVE",
"272 393 OFFCURVE",
"331 393 CURVE",
"387 393 OFFCURVE",
"434 346 OFFCURVE",
"434 287 CURVE",
"434 228 LINE",
"434 172 OFFCURVE",
"387 125 OFFCURVE",
"331 125 CURVE",
"272 125 OFFCURVE",
"225 172 OFFCURVE",
"225 228 CURVE"
);
},
{
closed = 1;
nodes = (
"127 412 OFFCURVE",
"100 351 OFFCURVE",
"100 287 CURVE",
"100 228 LINE",
"100 103 OFFCURVE",
"203 0 OFFCURVE",
"331 0 CURVE",
"456 0 OFFCURVE",
"559 103 OFFCURVE",
"559 228 CURVE",
"559 287 LINE",
"559 351 OFFCURVE",
"532 412 OFFCURVE",
"488 454 CURVE",
"519 493 OFFCURVE",
"539 542 OFFCURVE",
"539 591 CURVE",
"539 626 LINE",
"539 741 OFFCURVE",
"446 834 OFFCURVE",
"331 834 CURVE",
"215 834 OFFCURVE",
"122 741 OFFCURVE",
"122 626 CURVE",
"122 591 LINE",
"122 542 OFFCURVE",
"139 493 OFFCURVE",
"174 454 CURVE"
);
},
{
closed = 1;
nodes = (
"247 672 OFFCURVE",
"284 709 OFFCURVE",
"331 709 CURVE",
"375 709 OFFCURVE",
"414 672 OFFCURVE",
"414 626 CURVE",
"414 591 LINE",
"414 545 OFFCURVE",
"375 508 OFFCURVE",
"331 508 CURVE",
"284 508 OFFCURVE",
"247 545 OFFCURVE",
"247 591 CURVE",
"247 626 LINE"
);
}
);
width = 659;
}
);
unicode = 0038;
},
{
glyphname = nine;
lastChange = "2017-12-13 17:59:06 +0000";
layers = (
{
layerId = "AD39E6C8-8F9C-453F-B2FE-0131B3A51D2D";
paths = (
{
closed = 1;
nodes = (
"235 665 OFFCURVE",
"277 704 OFFCURVE",
"326 709 CURVE",
"385 714 OFFCURVE",
"437 672 OFFCURVE",
"441 613 CURVE",
"441 572 LINE",
"441 515 OFFCURVE",
"395 469 OFFCURVE",
"338 466 CURVE",
"280 466 OFFCURVE",
"233 513 OFFCURVE",
"231 572 CURVE",
"231 613 LINE"
);
},
{
closed = 1;
nodes = (
"569 599 LINE",
"571 726 OFFCURVE",
"471 832 OFFCURVE",
"343 834 CURVE",
"218 836 OFFCURVE",
"115 738 OFFCURVE",
"108 613 CURVE",
"108 572 LINE",
"110 444 OFFCURVE",
"213 343 OFFCURVE",
"341 343 CURVE",
"368 343 OFFCURVE",
"395 348 OFFCURVE",
"419 358 CURVE",
"395 277 OFFCURVE",
"356 201 OFFCURVE",
"302 137 CURVE",
"194 0 LINE",
"351 0 LINE",
"383 37 OFFCURVE",
"412 79 OFFCURVE",
"441 120 CURVE",
"500 206 OFFCURVE",
"542 307 OFFCURVE",
"559 412 CURVE",
"564 464 LINE",
"569 557 LINE"
);
}
);
width = 677;
}
);
unicode = 0039;
},
{
glyphname = period;
lastChange = "2017-12-13 17:42:13 +0000";
layers = (
{
layerId = "AD39E6C8-8F9C-453F-B2FE-0131B3A51D2D";
paths = (
{
closed = 1;
nodes = (
"292 98 OFFCURVE",
"321 125 OFFCURVE",
"355 125 CURVE",
"390 125 OFFCURVE",
"417 98 OFFCURVE",
"417 63 CURVE",
"417 29 OFFCURVE",
"390 0 OFFCURVE",
"355 0 CURVE",
"321 0 OFFCURVE",
"292 29 OFFCURVE",
"292 63 CURVE",
"292 63 LINE"
);
}
);
width = 417;
}
);
unicode = 002E;
},
{
glyphname = comma;
lastChange = "2017-12-13 17:42:27 +0000";
layers = (
{
layerId = "AD39E6C8-8F9C-453F-B2FE-0131B3A51D2D";
paths = (
{
closed = 1;
nodes = (
"646 10 LINE",
"675 32 OFFCURVE",
"680 72 OFFCURVE",
"658 98 CURVE",
"636 125 OFFCURVE",
"597 130 OFFCURVE",
"570 111 CURVE",
"556 98 OFFCURVE",
"546 79 OFFCURVE",
"546 62 CURVE",
"546 -105 LINE"
);
}
);
width = 882;
}
);
unicode = 002C;
},
{
glyphname = colon;
lastChange = "2017-12-13 17:42:41 +0000";
layers = (
{
layerId = "AD39E6C8-8F9C-453F-B2FE-0131B3A51D2D";
paths = (
{
closed = 1;
nodes = (
"292 316 OFFCURVE",
"321 345 OFFCURVE",
"355 345 CURVE",
"390 345 OFFCURVE",
"417 316 OFFCURVE",
"417 281 CURVE",
"417 247 OFFCURVE",
"390 220 OFFCURVE",
"355 220 CURVE",
"321 220 OFFCURVE",
"292 247 OFFCURVE",
"292 281 CURVE",
"292 281 LINE"
);
},
{
closed = 1;
nodes = (
"292 98 OFFCURVE",
"321 125 OFFCURVE",
"355 125 CURVE",
"390 125 OFFCURVE",
"417 98 OFFCURVE",
"417 63 CURVE",
"417 29 OFFCURVE",
"390 0 OFFCURVE",
"355 0 CURVE",
"321 0 OFFCURVE",
"292 29 OFFCURVE",
"292 63 CURVE",
"292 63 LINE"
);
}
);
width = 417;
}
);
unicode = 003A;
},
{
glyphname = semicolon;
lastChange = "2017-12-13 17:42:58 +0000";
layers = (
{
layerId = "AD39E6C8-8F9C-453F-B2FE-0131B3A51D2D";
paths = (
{
closed = 1;
nodes = (
"546 312 OFFCURVE",
"573 341 OFFCURVE",
"607 341 CURVE",
"642 341 OFFCURVE",
"671 312 OFFCURVE",
"671 277 CURVE",
"671 243 OFFCURVE",
"642 216 OFFCURVE",
"607 216 CURVE",
"573 216 OFFCURVE",
"546 243 OFFCURVE",
"546 277 CURVE",
"546 277 LINE"
);
},
{
closed = 1;
nodes = (
"647 10 LINE",
"673 30 OFFCURVE",
"678 69 OFFCURVE",
"656 98 CURVE",
"637 125 OFFCURVE",
"597 130 OFFCURVE",
"570 108 CURVE",
"553 96 OFFCURVE",
"546 79 OFFCURVE",
"546 59 CURVE",
"546 -108 LINE"
);
}
);
width = 881;
}
);
unicode = 003B;
},
{
glyphname = exclam;
lastChange = "2017-12-13 17:43:28 +0000";
layers = (
{
layerId = "AD39E6C8-8F9C-453F-B2FE-0131B3A51D2D";
paths = (
{
closed = 1;
nodes = (
"267 834 LINE",
"267 194 LINE",
"142 194 LINE",
"142 834 LINE"
);
},
{
closed = 1;
nodes = (
"142 98 OFFCURVE",
"169 125 OFFCURVE",
"203 125 CURVE",
"238 125 OFFCURVE",
"267 98 OFFCURVE",
"267 61 CURVE",
"267 27 OFFCURVE",
"238 0 OFFCURVE",
"203 0 CURVE",
"169 0 OFFCURVE",
"142 27 OFFCURVE",
"142 61 CURVE",
"142 61 LINE"
);
}
);
width = 409;
}
);
unicode = 0021;
},
{
glyphname = question;
lastChange = "2017-12-13 17:43:56 +0000";
layers = (
{
layerId = "AD39E6C8-8F9C-453F-B2FE-0131B3A51D2D";
paths = (
{
closed = 1;
nodes = (
"401 300 OFFCURVE",
"407 319 OFFCURVE",
"419 339 CURVE",
"565 462 LINE",
"640 568 OFFCURVE",
"613 716 OFFCURVE",
"508 792 CURVE",
"469 819 OFFCURVE",
"419 834 OFFCURVE",
"373 834 CURVE",
"223 852 OFFCURVE",
"86 745 OFFCURVE",
"70 597 CURVE",
"67 585 OFFCURVE",
"67 576 OFFCURVE",
"67 564 CURVE",
"193 564 LINE",
"193 573 OFFCURVE",
"193 580 OFFCURVE",
"196 591 CURVE",
"208 669 OFFCURVE",
"284 723 OFFCURVE",
"365 708 CURVE",
"385 708 OFFCURVE",
"407 706 OFFCURVE",
"424 696 CURVE",
"478 666 OFFCURVE",
"499 597 OFFCURVE",
"470 546 CURVE",
"328 426 LINE",
"293 384 OFFCURVE",
"277 331 OFFCURVE",
"277 277 CURVE",
"277 193 LINE",
"401 193 LINE",
"401 277 LINE"
);
},
{
closed = 1;
nodes = (
"277 96 OFFCURVE",
"304 124 OFFCURVE",
"338 124 CURVE",
"373 124 OFFCURVE",
"401 96 OFFCURVE",
"401 61 CURVE",
"401 27 OFFCURVE",
"373 0 OFFCURVE",
"338 0 CURVE",
"304 0 OFFCURVE",
"277 27 OFFCURVE",
"277 61 CURVE",
"277 61 LINE"
);
}
);
width = 675;
}
);
unicode = 003F;
},
{
glyphname = parenleft;
lastChange = "2017-12-10 12:07:39 +0000";
layers = (
{
background = {
paths = (
{
closed = 1;
nodes = (
"209 590 OFFCURVE",
"209 246 OFFCURVE",
"395 -8 CURVE",
"373 11 OFFCURVE",
"354 33 OFFCURVE",
"334 55 CURVE",
"134 290 OFFCURVE",
"161 641 OFFCURVE",
"395 841 CURVE"
);
}
);
};
layerId = "AD39E6C8-8F9C-453F-B2FE-0131B3A51D2D";
paths = (
{
closed = 1;
nodes = (
"209 590 OFFCURVE",
"209 246 OFFCURVE",
"395 -8 CURVE",
"373 11 OFFCURVE",
"354 33 OFFCURVE",
"334 55 CURVE",
"134 290 OFFCURVE",
"161 641 OFFCURVE",
"395 841 CURVE"
);
}
);
width = 445;
}
);
unicode = 0028;
},
{
glyphname = parenright;
lastChange = "2017-12-10 12:07:50 +0000";
layers = (
{
layerId = "AD39E6C8-8F9C-453F-B2FE-0131B3A51D2D";
paths = (
{
closed = 1;
nodes = (
"236 243 OFFCURVE",
"236 587 OFFCURVE",
"50 841 CURVE",
"72 822 OFFCURVE",
"91 800 OFFCURVE",
"111 778 CURVE",
"311 543 OFFCURVE",
"284 192 OFFCURVE",
"50 -8 CURVE"
);
}
);
width = 445;
}
);
unicode = 0029;
},
{
glyphname = hyphen;
lastChange = "2017-12-13 17:27:38 +0000";
layers = (
{
layerId = "AD39E6C8-8F9C-453F-B2FE-0131B3A51D2D";
paths = (
{
closed = 1;
nodes = (
"462 216 LINE",
"462 341 LINE",
"231 341 LINE",
"231 216 LINE"
);
}
);
width = 693;
}
);
unicode = 002D;
},
